<?xml version="1.0" encoding="UTF-8" standalone="no"?>

<svg viewBox="0 0 338.66666 338.66666" version="1.1" xmlns="http://www.w3.org/2000/svg" id="logo">
  <path style="fill-opacity:1;stroke-linecap:round;stroke-linejoin:round" d="M 169.33385,0 C 134.42478,5.1590536e-7 104.01644,21.293268 83.435732,52.17976 62.855028,83.066253 50.851674,124.2008 50.851675,169.33385 c 10e-7,8.87521 0.472665,17.59081 1.381828,26.10538 0.99273,9.2972 7.752137,11.39966 14.365015,4.78679 l 6.5319,-6.5319 c 6.612878,-6.61287 11.586373,-17.51581 11.586373,-24.36027 -10e-7,-39.03513 10.729357,-74.103418 26.902229,-98.374875 16.17288,-24.271456 36.53982,-37.091791 57.71483,-37.091792 21.17502,0 41.54193,12.820336 57.71482,37.091792 2.19171,3.289216 4.27423,6.790258 6.2513,10.460343 L 91.802663,222.91662 64.883894,249.83539 5.0513712,309.66791 c -6.6334182,6.63342 -6.6334112,17.31396 0,23.94738 6.6334188,6.63341 17.3139558,6.63341 23.9473748,0 l 51.633023,-51.63302 c 0.932484,1.50411 1.832138,3.04565 2.803963,4.50411 20.580708,30.88649 50.989048,52.17976 85.898118,52.17976 34.90907,0 65.31585,-21.29327 85.89656,-52.17976 20.5807,-30.88649 32.58612,-72.01947 32.58612,-117.15253 0,-8.87594 -0.473,-17.59218 -1.38234,-26.10745 -0.99284,-9.29719 -7.75214,-11.39966 -14.36501,-4.78679 l -6.53346,6.53345 c -6.61287,6.61287 -11.58637,17.51605 -11.58637,24.36079 0,39.03514 -10.7278,74.10187 -26.90068,98.37332 -16.17289,24.27146 -36.5398,37.09386 -57.71482,37.09386 -21.17501,0 -41.54195,-12.8224 -57.71483,-37.09386 -2.19179,-3.28934 -4.27404,-6.79071 -6.25129,-10.46086 L 246.86348,115.75056 273.78277,88.831269 333.61529,28.998746 c 6.63342,-6.633418 6.63342,-17.313956 0,-23.9473748 -6.63341,-6.6334112 -17.31396,-6.6334182 -23.94738,0 L 258.03489,56.684394 C 257.10228,55.180066 256.20237,53.638423 255.23041,52.17976 234.6497,21.293267 204.24293,0 169.33385,0 Z" />
</svg>
